<svg width="79" height="74" viewBox="0 0 79 74" fill="none" xmlns="http://www.w3.org/2000/svg">
<rect x="-0.000244141" width="79" height="74" rx="12" fill="url(#paint0_linear_158_1008)"/>
<path fill-rule="evenodd" clip-rule="evenodd" d="M45.5003 41.8547C47.6498 41.8547 49.48 43.229 50.1581 45.1464H52.0838C52.5203 45.1464 52.9389 45.3198 53.2476 45.6285C53.5562 45.9372 53.7296 46.3558 53.7296 46.7923C53.7296 47.2288 53.5562 47.6474 53.2476 47.9561C52.9389 48.2648 52.5203 48.4382 52.0838 48.4382H50.1581C49.8181 49.4019 49.1875 50.2364 48.3533 50.8266C47.5191 51.4169 46.5223 51.7339 45.5003 51.7339C44.4784 51.7339 43.4816 51.4169 42.6474 50.8266C41.8132 50.2364 41.1826 49.4019 40.8426 48.4382H25.7501C25.3136 48.4382 24.895 48.2648 24.5863 47.9561C24.2776 47.6474 24.1042 47.2288 24.1042 46.7923C24.1042 46.3558 24.2776 45.9372 24.5863 45.6285C24.895 45.3198 25.3136 45.1464 25.7501 45.1464H40.8426C41.1833 44.1835 41.8142 43.3499 42.6483 42.7604C43.4825 42.1708 44.4789 41.8544 45.5003 41.8547ZM45.5003 45.1464C45.0638 45.1464 44.6452 45.3198 44.3366 45.6285C44.0279 45.9372 43.8545 46.3558 43.8545 46.7923C43.8545 47.2288 44.0279 47.6474 44.3366 47.9561C44.6452 48.2648 45.0638 48.4382 45.5003 48.4382C45.9369 48.4382 46.3555 48.2648 46.6641 47.9561C46.9728 47.6474 47.1462 47.2288 47.1462 46.7923C47.1462 46.3558 46.9728 45.9372 46.6641 45.6285C46.3555 45.3198 45.9369 45.1464 45.5003 45.1464ZM32.3335 31.9796C33.3029 31.9795 34.2509 32.2647 35.0593 32.7997C35.8676 33.3347 36.5007 34.0959 36.8794 34.9882L36.9896 35.2713H52.0838C52.5033 35.2718 52.9067 35.4324 53.2118 35.7204C53.5168 36.0084 53.7004 36.4019 53.725 36.8207C53.7495 37.2395 53.6133 37.6519 53.344 37.9735C53.0748 38.2952 52.6929 38.502 52.2763 38.5515L52.0838 38.563H36.9913C36.6595 39.5016 36.0518 40.3181 35.2479 40.9053C34.444 41.4925 33.4814 41.8231 32.4863 41.8537C31.4913 41.8843 30.5102 41.6135 29.6717 41.0768C28.8333 40.5401 28.1765 39.7626 27.7877 38.8461L27.6758 38.563H25.7501C25.3306 38.5626 24.9271 38.4019 24.6221 38.114C24.317 37.826 24.1335 37.4324 24.1089 37.0136C24.0843 36.5949 24.2206 36.1825 24.4898 35.8608C24.7591 35.5391 25.141 35.3324 25.5575 35.2828L25.7501 35.2713H27.6758C28.0165 34.3084 28.6473 33.4747 29.4815 32.8852C30.3157 32.2957 31.3121 31.9793 32.3335 31.9796ZM32.3335 35.2713C31.897 35.2713 31.4784 35.4447 31.1697 35.7534C30.8611 36.062 30.6877 36.4807 30.6877 36.9172C30.6877 37.3537 30.8611 37.7723 31.1697 38.081C31.4784 38.3896 31.897 38.563 32.3335 38.563C32.77 38.563 33.1887 38.3896 33.4973 38.081C33.806 37.7723 33.9794 37.3537 33.9794 36.9172C33.9794 36.4807 33.806 36.062 33.4973 35.7534C33.1887 35.4447 32.77 35.2713 32.3335 35.2713ZM45.5003 22.1045C47.6498 22.1045 49.48 23.4788 50.1581 25.3962H52.0838C52.5203 25.3962 52.9389 25.5696 53.2476 25.8783C53.5562 26.1869 53.7296 26.6055 53.7296 27.0421C53.7296 27.4786 53.5562 27.8972 53.2476 28.2058C52.9389 28.5145 52.5203 28.6879 52.0838 28.6879H50.1581C49.8181 29.6516 49.1875 30.4861 48.3533 31.0764C47.5191 31.6667 46.5223 31.9836 45.5003 31.9836C44.4784 31.9836 43.4816 31.6667 42.6474 31.0764C41.8132 30.4861 41.1826 29.6516 40.8426 28.6879H25.7501C25.3136 28.6879 24.895 28.5145 24.5863 28.2058C24.2776 27.8972 24.1042 27.4786 24.1042 27.0421C24.1042 26.6055 24.2776 26.1869 24.5863 25.8783C24.895 25.5696 25.3136 25.3962 25.7501 25.3962H40.8426C41.1833 24.4333 41.8142 23.5996 42.6483 23.0101C43.4825 22.4206 44.4789 22.1042 45.5003 22.1045ZM45.5003 25.3962C45.0638 25.3962 44.6452 25.5696 44.3366 25.8783C44.0279 26.1869 43.8545 26.6055 43.8545 27.0421C43.8545 27.4786 44.0279 27.8972 44.3366 28.2058C44.6452 28.5145 45.0638 28.6879 45.5003 28.6879C45.9369 28.6879 46.3555 28.5145 46.6641 28.2058C46.9728 27.8972 47.1462 27.4786 47.1462 27.0421C47.1462 26.6055 46.9728 26.1869 46.6641 25.8783C46.3555 25.5696 45.9369 25.3962 45.5003 25.3962Z" fill="#18012B"/>
<defs>
<linearGradient id="paint0_linear_158_1008" x1="19.256" y1="-40.5492" x2="75.1753" y2="3.24644" gradientUnits="userSpaceOnUse">
<stop stop-color="#F15828"/>
<stop offset="1" stop-color="#00A3FF"/>
</linearGradient>
</defs>
</svg>
