<svg width="70" height="70" viewBox="0 0 70 70" fill="none" xmlns="http://www.w3.org/2000/svg">
<path d="M-3.0598e-06 35C-2.45463e-06 41.9224 2.05271 48.6892 5.89857 54.445C9.74441 60.2007 15.2107 64.6867 21.6061 67.3358C28.0015 69.9849 35.0388 70.678 41.8282 69.3275C48.6175 67.977 54.8539 64.6436 59.7487 59.7487C64.6436 54.8539 67.977 48.6175 69.3275 41.8282C70.678 35.0388 69.9848 28.0015 67.3358 21.6061C64.6867 15.2107 60.2007 9.74441 54.445 5.89856C48.6892 2.05271 41.9223 2.45463e-06 35 3.0598e-06L35 35L-3.0598e-06 35Z" fill="url(#paint0_linear_149_343)"/>
<defs>
<linearGradient id="paint0_linear_149_343" x1="52.9375" y1="108.357" x2="0.966796" y2="70.2304" gradientUnits="userSpaceOnUse">
<stop stop-color="#F15828"/>
<stop offset="1" stop-color="#00A3FF"/>
</linearGradient>
</defs>
</svg>
