<svg width="51" height="50" viewBox="0 0 51 50" fill="none" xmlns="http://www.w3.org/2000/svg">
<g id="Group 1000006902">
<rect id="Rectangle 29" x="8.18567" y="10" width="36.2282" height="31.25" fill="white"/>
<path id="Q" d="M23.8952 0H27.4558C31.2667 0 35.6025 1.57997 40.463 4.73991C44.1286 7.60817 46.7849 10.9221 48.432 14.6816C49.9176 18.2628 50.6604 21.285 50.6604 23.7482V25.8143C50.6604 31.3563 48.3916 36.8498 43.8541 42.2946C38.5898 47.4315 32.4778 50 25.518 50C16.8304 50 9.73341 45.9407 4.22696 37.8221C1.86935 33.4468 0.690552 29.1444 0.690552 24.9149C0.690552 17.9468 3.54874 11.6675 9.26512 6.07681C14.594 2.0256 19.4706 0 23.8952 0ZM12.3655 21.6578V29.3875C12.3655 33.6007 13.6977 36.4123 16.3622 37.8221C17.5571 38.5027 21.4003 38.7538 27.8918 38.5756C32.8654 38.5756 35.7236 38.0327 36.4664 36.947C38.1458 35.602 38.9855 33.3738 38.9855 30.2625V20.3209C38.9855 16.3993 37.6048 13.8308 34.8435 12.6155L33.0026 12.0078L31.1375 11.8619H20.3588C16.5156 11.8619 13.948 13.7417 12.6562 17.5012C12.4624 18.6518 12.3655 20.0373 12.3655 21.6578ZM20.7948 14.244H31.1375C34.8839 14.244 36.757 16.221 36.757 20.175V30.7001C36.2564 34.3623 34.7305 36.1935 32.1791 36.1935H27.8918C25.8895 36.1935 23.7741 36.2421 21.5457 36.3393C17.8316 36.3393 15.6597 35.1564 15.0299 32.7905C14.8362 31.4779 14.7393 29.5009 14.7393 26.8595V23.578C14.7393 18.6356 15.1349 16.1643 15.9262 16.1643C16.7174 14.8841 18.3403 14.244 20.7948 14.244ZM31.2829 18.2547C31.7189 19.2432 32.2679 19.7375 32.93 19.7375C33.592 19.7375 34.133 19.2432 34.5528 18.2547C34.3268 17.0556 33.7293 16.456 32.7604 16.456C31.7754 16.7639 31.2829 17.3635 31.2829 18.2547ZM18.8812 25.3768C18.8812 28.5691 20.706 30.7892 24.3554 32.0369H27.3105C30.8469 30.7568 32.6151 28.4881 32.6151 25.2309V24.9149C32.6151 23.0676 31.6785 21.3418 29.8053 19.7375C28.5296 18.8462 27.2055 18.4006 25.8329 18.4006H25.6876C22.6356 18.4006 20.5122 19.9806 19.3172 23.1405C19.1558 23.3512 19.0104 24.0966 18.8812 25.3768ZM25.6876 20.7584H25.8329C27.9645 20.7584 29.3936 21.9008 30.1202 24.1857C30.2171 24.3153 30.2656 24.6638 30.2656 25.2309C29.7973 28.2936 28.3197 29.825 25.8329 29.825C23.8629 29.825 22.4338 28.8365 21.5457 26.8595C21.4165 26.6975 21.3115 26.2032 21.2308 25.3768C21.586 22.2978 23.0716 20.7584 25.6876 20.7584Z" fill="#F54C1E"/>
</g>
</svg>
