<svg width="80" height="80" viewBox="0 0 80 80" fill="none" xmlns="http://www.w3.org/2000/svg">
<g clip-path="url(#clip0_200_894)">
<path d="M34.1633 5.48646C35.4588 5.29395 36.7781 5.61741 37.8376 6.38731C38.8971 7.15721 39.6122 8.31209 39.8292 9.60367C40.0462 10.8952 39.7478 12.2204 38.9981 13.2943C38.2484 14.3682 37.1072 15.105 35.82 15.3465C29.9971 16.3353 24.7122 19.3532 20.9014 23.8656C17.0907 28.378 15.0001 34.0936 15 39.9998C15 46.6302 17.6339 52.9891 22.3223 57.6775C27.0107 62.3659 33.3696 64.9998 40 64.9998V74.9998C20.67 74.9998 5 59.3331 5 39.9998C5 22.8498 17.42 8.29979 34.1633 5.48646Z" fill="white"/>
<path d="M56.3067 14.3267C56.7451 13.8375 57.2757 13.4396 57.8681 13.1555C58.4604 12.8715 59.1029 12.707 59.7589 12.6714C60.4149 12.6358 61.0714 12.7298 61.691 12.9481C62.3106 13.1663 62.8812 13.5045 63.37 13.9434C67.034 17.2228 69.964 21.2392 71.9682 25.7295C73.9724 30.2198 75.0055 35.0828 75 40.0001C75 59.3334 59.33 75.0001 40 75.0001V65.0001C45.0605 65.0001 50.0019 63.4644 54.171 60.596C58.3401 57.7276 61.5405 53.6615 63.3491 48.9352C65.1578 44.2089 65.4895 39.045 64.3005 34.1261C63.1115 29.2073 60.4577 24.7651 56.69 21.3867C55.7031 20.5013 55.1082 19.2601 55.0364 17.9361C54.9645 16.6121 55.4214 15.3138 56.3067 14.3267Z" fill="url(#paint0_radial_200_894)"/>
</g>
<defs>
<radialGradient id="paint0_radial_200_894" cx="0" cy="0" r="1" gradientUnits="userSpaceOnUse" gradientTransform="translate(25.6 32.0001) rotate(50.4206) scale(77.847 43.7091)">
<stop stop-color="white"/>
<stop offset="1" stop-color="white" stop-opacity="0"/>
</radialGradient>
<clipPath id="clip0_200_894">
<rect width="80" height="80" fill="white"/>
</clipPath>
</defs>
</svg>
