<svg width="50" height="50" viewBox="0 0 50 50" fill="none" xmlns="http://www.w3.org/2000/svg">
<rect x="7.33984" y="9" width="36.2282" height="31.25" fill="white"/>
<path fill-rule="evenodd" clip-rule="evenodd" d="M25 50C38.8071 50 50 38.8071 50 25C50 11.1929 38.8071 0 25 0C11.1929 0 0 11.1929 0 25C0 38.8071 11.1929 50 25 50ZM18.3638 34C23.3498 34 27.3898 29.97 27.3898 25C27.3883 23.8164 27.1535 22.6446 26.6991 21.5517C26.2446 20.4588 25.5793 19.4661 24.7411 18.6304C23.9029 17.7946 22.9083 17.1322 21.8141 16.6808C20.7199 16.2295 19.5475 15.9982 18.3638 16C13.3798 16 9.33984 20.028 9.33984 25C9.34142 26.1835 9.57608 27.355 10.0304 28.4478C10.4848 29.5406 11.1499 30.5332 11.9879 31.3689C12.8258 32.2047 13.8202 32.8671 14.9142 33.3186C16.0082 33.77 17.1804 34.0016 18.3638 34ZM32.7778 33.472C35.2698 33.472 37.2898 29.68 37.2898 25C37.2898 20.322 35.2698 16.528 32.7778 16.528C30.2858 16.528 28.2658 20.32 28.2658 25C28.2658 29.678 30.2858 33.472 32.7778 33.472ZM39.7518 32.59C40.6298 32.59 41.3398 29.192 41.3398 25C41.3398 20.808 40.6298 17.41 39.7538 17.41C38.8758 17.41 38.1658 20.808 38.1658 25C38.1658 29.19 38.8758 32.59 39.7518 32.59Z" fill="#F54C1E"/>
</svg>
