<svg width="24" height="23" viewBox="0 0 24 23" fill="none" xmlns="http://www.w3.org/2000/svg">
<g clip-path="url(#clip0_631_186)">
<path d="M9.70194 13.9146L9.73195 13.9931C9.74129 14.0184 9.7554 14.0524 9.76748 14.0881L9.8111 14.2137C9.82817 14.2617 9.84205 14.3102 9.86024 14.3664C9.87758 14.4218 9.89811 14.4839 9.9142 14.5449L9.97035 14.7457C9.98886 14.8157 10.0044 14.8859 10.0231 14.9625C10.1034 15.293 10.1604 15.6287 10.1937 15.9672C10.2129 16.1473 10.221 16.3269 10.225 16.5115C10.2253 16.6925 10.2209 16.878 10.204 17.0593C10.1874 17.2396 10.16 17.4187 10.122 17.5957C10.0839 17.7694 10.0336 17.9402 9.97147 18.1068C9.84762 18.4372 9.67391 18.7425 9.44827 19.0123C9.33663 19.1485 9.20618 19.2699 9.07694 19.3956C8.94586 19.5195 8.81172 19.6435 8.6717 19.7636C8.38856 20.0093 8.09273 20.24 7.78544 20.4547C7.47512 20.6729 7.14871 20.8751 6.81391 21.0606C6.64619 21.1526 6.47623 21.2404 6.30418 21.324C6.13269 21.4064 5.95921 21.4845 5.7839 21.5584C5.43423 21.7043 5.0819 21.8309 4.73259 21.9358C4.39536 22.0377 4.05332 22.1228 3.7077 22.191C3.04672 22.3228 2.44005 22.3768 1.98912 22.3884L1.8279 22.3912L1.68312 22.391L1.44871 22.3848L1.29845 22.376L1.24535 22.3714L1.24077 22.3183L1.23196 22.168L1.22572 21.9336L1.22559 21.7888L1.22837 21.6276C1.23992 21.1767 1.29391 20.57 1.42576 19.909C1.49394 19.5634 1.5791 19.2214 1.68091 18.8842C1.78581 18.5348 1.91244 18.1825 2.0583 17.8328C2.13219 17.6575 2.21033 17.4841 2.29266 17.3126C2.37621 17.1411 2.46381 16.9707 2.55613 16.8028C2.74161 16.468 2.94376 16.1416 3.16199 15.8313C3.3767 15.524 3.60739 15.2282 3.85311 14.945C3.97323 14.805 4.09713 14.6708 4.22107 14.5398C4.3468 14.4106 4.46823 14.2801 4.60438 14.1685C4.87428 13.9428 5.17952 13.7691 5.50988 13.6453C5.67652 13.5832 5.84733 13.5329 6.02104 13.4947C6.19804 13.4568 6.37715 13.4294 6.55741 13.4128C6.73867 13.3958 6.92429 13.3915 7.10519 13.3917C7.28981 13.3957 7.46932 13.4039 7.6495 13.423C7.98799 13.4563 8.32372 13.5133 8.65423 13.5936C8.73073 13.6123 8.80099 13.6279 8.87102 13.6464L9.07182 13.7025C9.13282 13.7187 9.19491 13.7392 9.2503 13.7565C9.30654 13.7746 9.35501 13.7886 9.40303 13.8056L9.52859 13.8493C9.5643 13.8613 9.59826 13.8755 9.6236 13.8848C9.67521 13.9043 9.70194 13.9146 9.70194 13.9146Z" fill="#FFB636"/>
<path d="M3.9527 8.1646L0.695237 11.4221C0.470088 11.6472 0.629561 12.0322 0.947967 12.0322H3.68573C3.78052 12.0322 3.87144 12.0698 3.93846 12.1369L5.71611 13.9145L8.60328 8.05994H4.20543C4.1585 8.05992 4.11202 8.06916 4.06865 8.08712C4.02529 8.10508 3.98589 8.13141 3.9527 8.1646ZM10.2104 17.6359L11.988 19.4136C12.055 19.4806 12.0927 19.5715 12.0927 19.6663V22.4041C12.0927 22.7225 12.4777 22.882 12.7028 22.6568L15.9603 19.3993C16.0273 19.3323 16.0649 19.2414 16.0649 19.1466V14.7488L10.2104 17.6359Z" fill="#FF473E"/>
<path d="M23.2143 0.802953L23.2178 0.831568C23.2199 0.85039 23.224 0.87941 23.227 0.915213C23.2329 0.986773 23.2462 1.09764 23.2525 1.23115C23.2728 1.5058 23.2865 1.89244 23.2769 2.35761C23.2676 2.82304 23.2348 3.36673 23.1638 3.95692C23.1479 4.10633 23.1252 4.25426 23.1033 4.40798C23.0829 4.56327 23.0539 4.71497 23.0275 4.87395C22.9731 5.19052 22.9053 5.51265 22.827 5.84126C22.6639 6.52324 22.4567 7.19394 22.2068 7.84913C21.9491 8.5239 21.6398 9.19791 21.2772 9.85264C20.9141 10.5068 20.501 11.145 20.0394 11.7515C19.5783 12.3586 19.0693 12.9347 18.5232 13.4737C17.9771 14.0127 17.3946 14.5153 16.7826 14.9714C16.6295 15.0854 16.4756 15.1975 16.3182 15.3047C16.1625 15.4137 16.0034 15.5179 15.8449 15.6212C15.5263 15.8261 15.201 16.0179 14.8723 16.1978C14.2252 16.5518 13.5548 16.8614 12.8657 17.1244C12.2109 17.3737 11.541 17.5816 10.8602 17.7469C10.5323 17.8259 10.2119 17.8955 9.89583 17.9503L9.66318 17.9922C9.58609 18.0054 9.50788 18.0163 9.43197 18.0282L9.20668 18.0626L8.98324 18.091C8.39625 18.1653 7.85615 18.2016 7.39413 18.2144C6.9326 18.2276 6.54816 18.2162 6.27665 18.1989C6.14449 18.194 6.03435 18.1813 5.96364 18.1763C5.92819 18.1737 5.8994 18.1698 5.8808 18.1679L5.85246 18.1648C5.63764 18.1408 5.47471 17.9703 5.4518 17.7641L5.44865 17.7358C5.44677 17.7172 5.44286 17.6884 5.44025 17.653C5.43527 17.5823 5.4226 17.4722 5.41761 17.34C5.40045 17.0684 5.38904 16.684 5.4022 16.2225C5.41492 15.7605 5.4513 15.2204 5.52556 14.6334L5.554 14.4099L5.58836 14.1846C5.60026 14.1087 5.61118 14.0306 5.62434 13.9534L5.66626 13.7208C5.7211 13.4048 5.79064 13.0843 5.86966 12.7564C6.03493 12.0756 6.24285 11.4057 6.49219 10.7509C6.75521 10.0619 7.06478 9.39143 7.41875 8.74433C7.59875 8.41568 7.79052 8.09031 7.99541 7.77173C8.09864 7.6132 8.20286 7.45413 8.31184 7.29843C8.41907 7.14098 8.53115 6.98708 8.64511 6.83403C9.10125 6.22201 9.60384 5.63947 10.1429 5.0934C10.6818 4.54728 11.258 4.03827 11.8651 3.57724C12.4716 3.11562 13.1097 2.70252 13.7639 2.33942C14.4187 1.97685 15.0927 1.66752 15.7674 1.40976C16.4226 1.15989 17.0933 0.952739 17.7753 0.789611C18.1039 0.711312 18.426 0.64348 18.7426 0.589125C18.9016 0.562666 19.0533 0.533691 19.2086 0.513341C19.3623 0.49142 19.5102 0.468689 19.6596 0.452832C20.2498 0.381765 20.7935 0.348972 21.259 0.339673C21.7241 0.330105 22.1108 0.343716 22.3854 0.364066C22.5189 0.3704 22.6298 0.383787 22.7013 0.389627C22.7372 0.392591 22.7662 0.396679 22.785 0.398836L22.8136 0.402295C23.0278 0.428125 23.1896 0.597884 23.2143 0.802953Z" fill="#ADBBBC"/>
<path d="M11.4204 12.1961L11.4466 12.267C11.4612 12.3111 11.4809 12.3744 11.4944 12.4451C11.5266 12.5913 11.5372 12.7693 11.4791 12.9241C11.4504 13.0019 11.3974 13.0667 11.3475 13.1452L11.1816 13.3947L10.7834 13.9927C10.6252 14.227 10.4657 14.4604 10.3049 14.6929C10.1256 14.9515 9.94421 15.2087 9.76066 15.4643L9.46822 15.8668L9.16437 16.2749C8.95822 16.5478 8.74727 16.8236 8.53277 17.0958C8.32035 17.367 8.10525 17.6361 7.88751 17.903C7.67274 18.1674 7.46214 18.4282 7.25487 18.6772L6.9508 19.0452C6.85008 19.1641 6.75849 19.2873 6.65211 19.3901C6.54641 19.4935 6.42445 19.575 6.28429 19.6316C6.14535 19.6894 5.99324 19.7274 5.84617 19.7629C5.56893 19.8286 5.28866 19.8808 5.00635 19.9193C4.8759 19.9372 4.75115 19.9512 4.63332 19.9617C4.51612 19.9729 4.40274 19.9773 4.30337 19.9845C4.20324 19.9908 4.10765 19.9903 4.02778 19.9931C3.94669 19.9947 3.87369 19.9921 3.81655 19.992C3.7582 19.9907 3.71157 19.9878 3.68107 19.9867L3.63318 19.9835L3.62995 19.9356C3.62891 19.9051 3.62599 19.8584 3.62469 19.8001C3.6246 19.743 3.62195 19.67 3.62357 19.5889C3.62635 19.509 3.62586 19.4134 3.63219 19.3133C3.63929 19.2139 3.64378 19.1005 3.65492 18.9833C3.66544 18.8656 3.67945 18.7408 3.69733 18.6103C3.73583 18.328 3.78803 18.0477 3.85375 17.7705C3.88924 17.6235 3.92724 17.4714 3.98505 17.3324C4.04166 17.1922 4.12314 17.0703 4.22655 16.9646C4.32934 16.8582 4.45256 16.7666 4.57146 16.6659L4.93947 16.3618C5.18847 16.1546 5.44933 15.9439 5.71369 15.7292C5.97761 15.514 6.24795 15.2976 6.52094 15.0839C6.79312 14.8694 7.0689 14.6585 7.34184 14.4523L7.74996 14.1485L8.15241 13.8561C8.40804 13.6725 8.66518 13.4911 8.92381 13.3118C9.17088 13.1406 9.40623 12.9805 9.62401 12.8333L10.222 12.4351L10.4715 12.2692C10.5499 12.2193 10.6148 12.1663 10.6927 12.1376C10.8475 12.0795 11.0254 12.0901 11.1717 12.1223C11.2423 12.1359 11.3057 12.1555 11.3497 12.1701L11.4204 12.1961Z" fill="#FF473E"/>
<path d="M16.7672 9.2836C16.7672 10.6275 15.6777 11.717 14.3338 11.717C12.9899 11.717 11.9004 10.6275 11.9004 9.2836C11.9004 7.93967 12.9899 6.85018 14.3338 6.85018C15.6777 6.85018 16.7672 7.93967 16.7672 9.2836ZM17.9904 4.078C17.1349 4.078 16.4414 4.77151 16.4414 5.627C16.4414 6.48249 17.1349 7.176 17.9904 7.176C18.8459 7.176 19.5394 6.48249 19.5394 5.627C19.5394 4.77151 18.8459 4.078 17.9904 4.078Z" fill="#2B3B47"/>
</g>
<defs>
<clipPath id="clip0_631_186">
<rect width="23" height="23" fill="white" transform="translate(0.5)"/>
</clipPath>
</defs>
</svg>
