<svg width="50" height="50" viewBox="0 0 50 50" fill="none" xmlns="http://www.w3.org/2000/svg">
<g id="Group 1000006901">
<rect id="Rectangle 30" x="7.21594" y="10" width="36.2282" height="31.25" fill="white"/>
<path id="D" d="M24.9157 0H25.9105C31.3423 0 36.5846 2.12283 41.6375 6.3685C47.0061 11.9592 49.6905 17.8253 49.6905 23.9669V26.3491C49.6905 29.9141 48.3483 34.1031 45.664 38.9159C42.348 43.7773 37.8321 47.1317 32.116 48.9791C29.4632 49.6597 27.2526 50 25.4841 50H25.342C18.7259 50 12.8125 47.3424 7.60173 42.0272C3.18048 36.8417 0.969849 31.17 0.969849 25.0122C0.969849 18.433 3.47259 12.4129 8.47808 6.95187C13.6888 2.31729 19.168 0 24.9157 0ZM26.3605 20.7098V21.9008C26.3605 22.0953 26.2578 22.1925 26.0526 22.1925C23.0366 21.7712 20.447 20.6855 18.2838 18.9353L16.2705 17.0151H16.1047C16.1047 17.1771 15.9153 17.5741 15.5363 18.2061V19.9806C15.6626 20.9853 16.3337 22.1196 17.5495 23.3836V23.5294C16.8864 23.5294 16.2153 23.335 15.5363 22.946V23.0919C15.5363 24.9878 16.7364 26.6164 19.1365 27.9776L18.8522 28.1235H18.1417L17.4074 27.9776V28.2693C18.5128 30.3435 19.9102 31.3807 21.5997 31.3807V31.8182C19.7049 33.0011 17.8259 33.5926 15.9626 33.5926H15.11V33.8843C17.8259 35.1645 20.1786 35.8046 22.1682 35.8046C26.3368 35.8046 29.8896 34.0788 32.8266 30.6271C34.9424 27.613 36.0004 24.7529 36.0004 22.0467V21.0258C37.532 19.5187 38.3058 18.6761 38.3215 18.4978V18.352C37.7689 18.6437 36.9952 18.8948 36.0004 19.1055L35.8583 18.7895C36.7583 18.2547 37.4294 17.5174 37.8715 16.5775V16.4317H37.7294C36.3083 17.1285 35.4477 17.4769 35.1477 17.4769H34.7214C33.6634 16.5856 32.7002 16.0914 31.8318 15.9942H30.6712C29.0606 15.9942 27.7658 16.9259 26.7868 18.7895C26.5026 19.2756 26.3605 19.9157 26.3605 20.7098Z" fill="#F54C1E"/>
</g>
</svg>
